<svg width="63" height="40" viewBox="0 0 63 40" fill="none" xmlns="http://www.w3.org/2000/svg">
<g clip-path="url(#clip0_129_403)">
<path d="M19.2681 32.2176L19.156 32.3263C17.3946 34.1209 15.3564 35.069 13.2569 35.069C8.87205 35.069 5.69118 31.7795 5.69118 27.2421C5.69118 22.7118 8.87205 19.417 13.2569 19.417C15.3564 19.417 17.3946 20.3704 19.156 22.172L19.2681 22.2789L22.088 18.8685L22.0126 18.7774C19.6677 16.0066 16.8531 14.6589 13.3936 14.6589C9.92533 14.6589 6.74972 15.8278 4.4644 17.9326C1.97578 20.2144 0.666626 23.4321 0.666626 27.2421C0.666626 31.0522 1.97578 34.2769 4.4644 36.5587C6.74972 38.6758 9.92533 39.8359 13.3936 39.8359C16.8531 39.8359 19.6677 38.4865 22.0126 35.714L22.088 35.6298L19.2681 32.2176Z" fill="#6A6F73"/>
<path d="M24.9361 39.3672H29.9168V15.049H24.9361V39.3672Z" fill="#6A6F73"/>
<path d="M49.4304 34.0851C48.1002 34.8948 46.8646 35.3031 45.7535 35.3031C44.1429 35.3031 43.4139 34.4514 43.4139 32.5586V19.6546H48.491V15.077H43.4139V7.50952L38.533 10.1243V15.077H34.3199V19.6546H38.533V33.3806C38.533 37.1187 40.7483 39.6775 44.0571 39.744C46.3021 39.7879 47.655 39.1184 48.4752 38.6277L48.5278 38.5944L49.7248 33.9046L49.4304 34.0851Z" fill="#6A6F73"/>
<path d="M53.5533 39.3672H58.5411V15.049H53.5533V39.3672Z" fill="#6A6F73"/>
<path d="M61.4461 10.7899C56.8948 4.34398 49.3378 0.498901 41.6494 0.498901C33.9627 0.498901 26.404 4.34398 21.8614 10.7899L21.6266 11.1211H27.3574L27.4205 11.0527C31.3199 7.02538 36.4128 4.89779 41.6494 4.89779C46.886 4.89779 51.9754 7.02538 55.8836 11.0527L55.9466 11.1211H61.674L61.4461 10.7899Z" fill="#6A6F73"/>
</g>
<defs>
<clipPath id="clip0_129_403">
<rect width="62" height="40" fill="white" transform="translate(0.166626)"/>
</clipPath>
</defs>
</svg>
