<svg width="95" height="40" viewBox="0 0 95 40" fill="none" xmlns="http://www.w3.org/2000/svg">
<g clip-path="url(#clip0_129_373)">
<mask id="mask0_129_373" style="mask-type:luminance" maskUnits="userSpaceOnUse" x="1" y="0" width="94" height="40">
<path d="M94.0237 0.5H1.02374V39.5H94.0237V0.5Z" fill="white"/>
</mask>
<g mask="url(#mask0_129_373)">
<path d="M30.9017 7.70499H3.05991V2.52393H30.9017V7.70499ZM32.891 0.523438H1.06964V9.70043H32.891V0.523438Z" fill="#6A6F73"/>
<path d="M3.05976 24.873H1.07062V15.6935H3.05976V19.3198H6.61375V15.6935H8.6029V24.873H6.61375V21.0702H3.05976V24.873Z" fill="#6A6F73"/>
<path d="M11.6347 20.8222H14.004C13.9599 20.1473 13.6825 19.6769 12.907 19.6769C12.3219 19.6769 11.81 19.927 11.6347 20.8222ZM13.1409 24.9922C11.1228 24.9922 9.74835 23.7147 9.74835 21.616C9.74835 19.5744 11.0938 18.1652 12.878 18.1652C14.823 18.1652 15.7883 19.4718 15.7883 21.4248V22.1592H11.6347C11.8693 23.1715 12.6586 23.4355 13.4486 23.4355C14.1358 23.4355 14.6326 23.2892 15.2467 22.9069H15.3205V24.4193C14.794 24.8016 14.0475 24.9922 13.1409 24.9922Z" fill="#6A6F73"/>
<path d="M20.9654 21.0246L19.9415 24.8711H18.2014L16.2122 18.4138V18.3403H18.1137L19.1956 22.2021L20.2195 18.3403H21.7698L22.8082 22.2021L23.9053 18.3403H25.7336V18.4138L23.7445 24.8711H22.0037L20.9654 21.0246Z" fill="#6A6F73"/>
<path d="M28.9343 24.9746C27.3549 24.9746 26.7112 24.3434 26.7112 22.8608V15.6501H28.6417V22.7278C28.6417 23.183 28.817 23.3445 29.1972 23.3445C29.329 23.3445 29.5194 23.3008 29.636 23.2565H29.6656V24.8569C29.5049 24.9151 29.2268 24.9746 28.9343 24.9746Z" fill="#6A6F73"/>
<path d="M32.1123 20.8222H34.4816C34.4375 20.1473 34.16 19.6769 33.3846 19.6769C32.8001 19.6769 32.2875 19.927 32.1123 20.8222ZM33.6185 24.9922C31.6003 24.9922 30.2259 23.7147 30.2259 21.616C30.2259 19.5744 31.5713 18.1652 33.3556 18.1652C35.3006 18.1652 36.2658 19.4718 36.2658 21.4248V22.1592H32.1123C32.3462 23.1715 33.1362 23.4355 33.9255 23.4355C34.6134 23.4355 35.1102 23.2892 35.7249 22.9069H35.798V24.4193C35.2716 24.8016 34.5257 24.9922 33.6185 24.9922Z" fill="#6A6F73"/>
<path d="M44.2173 18.3393H45.6504V19.8954H44.2173V22.553C44.2173 23.1259 44.4367 23.3905 45.0218 23.3905C45.1826 23.3905 45.3875 23.3753 45.6069 23.3019H45.6504V24.8289C45.402 24.9175 45.0218 25.0194 44.4664 25.0194C42.9009 25.0194 42.2868 24.3003 42.2868 22.641V19.8954H39.8153V22.553C39.8153 23.1259 40.0347 23.3905 40.6192 23.3905C40.7806 23.3905 40.9855 23.3753 41.2049 23.3019H41.2484V24.8289C41 24.9175 40.6192 25.0194 40.0644 25.0194C38.4989 25.0194 37.8848 24.3003 37.8848 22.641V19.8954H36.8899V18.3393H37.8848V16.5483H39.8153V18.3393H42.2868V16.5483H44.2173V18.3393Z" fill="#6A6F73"/>
<path d="M52.1361 20.1631C53.1461 20.1631 53.6278 19.5908 53.6278 18.7685C53.6278 17.9164 53.1461 17.3441 52.1361 17.3441H50.8783V20.1631H52.1361ZM55.6466 18.7685C55.6466 20.7658 54.3157 21.8515 52.2969 21.8515H50.8783V24.832H48.8904V15.6525H52.2969C54.3157 15.6525 55.6466 16.7389 55.6466 18.7653" fill="#6A6F73"/>
<path d="M59.9034 22.7975V22.2397C59.6109 22.0789 59.2313 22.0201 58.836 22.0201C58.2074 22.0201 57.8272 22.2543 57.8272 22.7829C57.8272 23.3267 58.2074 23.5616 58.7774 23.5616C59.3183 23.5616 59.7281 23.2824 59.9034 22.7975ZM59.962 24.2073C59.5377 24.7214 58.9098 24.9708 58.2358 24.9708C56.9641 24.9708 55.9251 24.1934 55.9251 22.812C55.9251 21.5351 56.9641 20.6836 58.4552 20.6836C58.923 20.6836 59.4066 20.7571 59.9034 20.9033V20.7868C59.9034 20.0816 59.5087 19.7739 58.471 19.7739C57.8121 19.7739 57.1835 19.9638 56.6419 20.2728H56.5694V18.7161C57.0663 18.423 57.9445 18.1729 58.8064 18.1729C60.7665 18.1729 61.8339 19.1124 61.8339 20.7571V24.8531H59.962V24.2073Z" fill="#6A6F73"/>
<path d="M62.7786 21.5825C62.7786 19.4826 64.2564 18.1613 66.187 18.1613C66.8742 18.1613 67.5173 18.3082 68.0002 18.6602V20.3195H67.9264C67.5021 19.9966 67.0053 19.8054 66.4354 19.8054C65.4701 19.8054 64.7388 20.467 64.7388 21.5825C64.7388 22.6979 65.4701 23.3443 66.4354 23.3443C67.0053 23.3443 67.5021 23.1531 67.9264 22.8296H68.0002V24.4889C67.5173 24.8415 66.8742 24.9884 66.187 24.9884C64.2564 24.9884 62.7786 23.6824 62.7786 21.5825Z" fill="#6A6F73"/>
<path d="M71.1514 21.8863V24.8516H69.2215V15.672H71.1514V20.8987L73.097 18.3145H75.2904V18.3879L72.9507 21.3538L75.2904 24.775V24.8484H73.0819L71.1514 21.8831" fill="#6A6F73"/>
<path d="M79.6244 22.7975V22.2397C79.3325 22.0789 78.9517 22.0201 78.557 22.0201C77.9285 22.0201 77.5483 22.2543 77.5483 22.7829C77.5483 23.3267 77.9285 23.5616 78.4978 23.5616C79.04 23.5616 79.4492 23.2824 79.6244 22.7975ZM79.6831 24.2073C79.2588 24.7214 78.6296 24.9708 77.9575 24.9708C76.6845 24.9708 75.6468 24.1934 75.6468 22.812C75.6468 21.5351 76.6845 20.6836 78.1775 20.6836C78.6453 20.6836 79.127 20.7571 79.6244 20.9033V20.7868C79.6244 20.0816 79.2298 19.7739 78.1914 19.7739C77.5338 19.7739 76.9039 19.9638 76.363 20.2728H76.2899V18.7161C76.7873 18.423 77.6649 18.1729 78.5274 18.1729C80.4882 18.1729 81.5556 19.1124 81.5556 20.7571V24.8531H79.6831V24.2073Z" fill="#6A6F73"/>
<path d="M84.8199 19.3534C85.1705 18.6336 85.683 18.2227 86.3999 18.2227C86.6628 18.2227 86.9257 18.2816 87.0272 18.3405V20.1903H86.9547C86.7353 20.1017 86.4724 20.0434 86.1067 20.0434C85.5071 20.0434 85.0393 20.3961 84.8779 21.0709V24.8301H82.948V18.2968H84.8199V19.3534Z" fill="#6A6F73"/>
<path d="M92.1335 22.646V20.5461C91.812 20.0763 91.3883 19.8712 90.9047 19.8712C90.0574 19.8712 89.4868 20.4885 89.4868 21.6039C89.4868 22.7194 90.0574 23.3215 90.9047 23.3215C91.3883 23.3215 91.812 23.1157 92.1335 22.646ZM92.1915 24.1881C91.7824 24.7168 91.1386 25.0099 90.2617 25.0099C88.5941 25.0099 87.5267 23.4835 87.5267 21.6039C87.5267 19.7244 88.5941 18.1828 90.2617 18.1828C91.1096 18.1828 91.7237 18.4475 92.1335 18.9318V15.6873H94.0641V24.8605H92.1915V24.1856" fill="#6A6F73"/>
<path d="M1.09259 27.8615H6.73786V28.9769H2.36489V31.7808H6.32805V32.8677H2.36489V35.9216H6.73786V37.0372H1.09259V27.8639" fill="#6A6F73"/>
<path d="M11.3818 30.4449C12.8293 30.4449 13.6338 31.3996 13.6338 32.9696V37.0371H12.4202V32.9994C12.4202 32.1625 11.9959 31.5604 11.0747 31.5604C10.3144 31.5604 9.67068 32.0453 9.45127 32.7348V37.0371H8.23761V30.5798H9.45127V31.5193C9.83145 30.9172 10.4752 30.4475 11.3818 30.4475" fill="#6A6F73"/>
<path d="M16.8797 30.5465H18.5322V31.5892H16.8797V35.0685C16.8797 35.8023 17.2599 36.0523 17.9471 36.0523C18.1368 36.0523 18.3418 36.0232 18.488 35.9643H18.5322V37.0064C18.3569 37.0798 18.1078 37.1387 17.7718 37.1387C16.265 37.1387 15.666 36.448 15.666 35.1863V31.5892H14.5545V30.5465H15.666V28.8296H16.8797V30.5465Z" fill="#6A6F73"/>
<path d="M20.5618 33.1797H23.7646C23.7211 32.2256 23.2527 31.4919 22.2584 31.4919C21.3373 31.4919 20.7371 32.182 20.5618 33.1797ZM22.4778 37.1737C20.5908 37.1737 19.304 35.9108 19.304 33.8849C19.304 31.8585 20.5032 30.4493 22.2439 30.4493C24.0136 30.4493 24.9348 31.7268 24.9348 33.6203V34.1787H20.5177C20.6494 35.4853 21.4836 36.1165 22.6386 36.1165C23.3554 36.1165 23.8667 35.9551 24.4373 35.529H24.4815V36.6014C23.955 37.0123 23.2672 37.1737 22.4778 37.1737Z" fill="#6A6F73"/>
<path d="M27.6231 31.5581C27.9012 30.8681 28.5159 30.4572 29.217 30.4572C29.4956 30.4572 29.7441 30.5009 29.8462 30.5598V31.7632H29.8027C29.6268 31.6759 29.3342 31.6316 29.0417 31.6316C28.3841 31.6316 27.828 32.0715 27.6231 32.8059V37.0196H26.4095V30.5623H27.6231V31.5607" fill="#6A6F73"/>
<path d="M33.7264 36.0667C34.9256 36.0667 35.6279 35.1127 35.6279 33.8054C35.6279 32.5139 34.9256 31.5453 33.7264 31.5453C33.0682 31.5453 32.4541 31.9416 32.1326 32.5722V35.0544C32.4541 35.685 33.0682 36.0667 33.7264 36.0667ZM33.9313 30.4438C35.8467 30.4438 36.8706 32.0151 36.8706 33.8054C36.8706 35.5976 35.8467 37.1683 33.9313 37.1683C33.1413 37.1683 32.4686 36.7574 32.1326 36.3161V39.5176H30.9183V30.5786H32.1326V31.3123C32.4686 30.8572 33.1413 30.4463 33.9313 30.4463" fill="#6A6F73"/>
<path d="M39.5265 31.5581C39.8039 30.8681 40.4186 30.4572 41.1203 30.4572C41.3983 30.4572 41.6467 30.5009 41.7489 30.5598V31.7632H41.7054C41.5301 31.6759 41.2376 31.6316 40.945 31.6316C40.2868 31.6316 39.7314 32.0715 39.5265 32.8059V37.0196H38.3128V30.5623H39.5265V31.5607" fill="#6A6F73"/>
<path d="M43.5111 27.9633C43.9354 27.9633 44.286 28.3007 44.286 28.7268C44.286 29.1528 43.9354 29.4902 43.5111 29.4902C43.1019 29.4902 42.7356 29.1528 42.7356 28.7268C42.7356 28.3007 43.1019 27.9633 43.5111 27.9633Z" fill="#6A6F73"/>
<path d="M42.9061 37.0288H44.1206V30.5664H42.9061V37.0288Z" fill="#6A6F73"/>
<path d="M48.4543 33.2313C49.3755 33.5244 50.3987 33.9062 50.3987 35.1394C50.3987 36.4612 49.3168 37.1367 47.9279 37.1367C47.0793 37.1367 46.2313 36.931 45.7483 36.5492V35.3894H45.807C46.3486 35.8883 47.1524 36.1086 47.9128 36.1086C48.6 36.1086 49.2147 35.844 49.2147 35.2863C49.2147 34.714 48.7034 34.5816 47.6934 34.2442C46.7867 33.9505 45.778 33.6124 45.778 32.3944C45.778 31.146 46.8012 30.4122 48.1032 30.4122C48.8635 30.4122 49.5362 30.5737 50.0772 30.9409V32.1158H50.0337C49.5079 31.6898 48.8925 31.4397 48.1322 31.4397C47.3718 31.4397 46.9475 31.7778 46.9475 32.233C46.9475 32.747 47.4153 32.8932 48.4543 33.2313Z" fill="#6A6F73"/>
<path d="M52.6912 33.1797H55.8934C55.8499 32.2256 55.3821 31.4919 54.3872 31.4919C53.466 31.4919 52.8665 32.182 52.6912 33.1797ZM54.6066 37.1737C52.7202 37.1737 51.4334 35.9108 51.4334 33.8849C51.4334 31.8585 52.6326 30.4493 54.3727 30.4493C56.143 30.4493 57.0635 31.7268 57.0635 33.6203V34.1787H52.6471C52.7788 35.4853 53.6123 36.1165 54.7673 36.1165C55.4848 36.1165 55.9961 35.9551 56.5661 35.529H56.6102V36.6014C56.0844 37.0123 55.3966 37.1737 54.6066 37.1737Z" fill="#6A6F73"/>
</g>
</g>
<defs>
<clipPath id="clip0_129_373">
<rect width="94" height="40" fill="white" transform="translate(0.333313)"/>
</clipPath>
</defs>
</svg>
