<svg width="49" height="48" viewBox="0 0 49 48" fill="none" xmlns="http://www.w3.org/2000/svg">
<g clip-path="url(#clip0_129_358)">
<mask id="mask0_129_358" style="mask-type:luminance" maskUnits="userSpaceOnUse" x="0" y="0" width="49" height="48">
<path d="M48.5 0H0.5V48H48.5V0Z" fill="white"/>
</mask>
<g mask="url(#mask0_129_358)">
<path d="M24.5 48C37.7548 48 48.5 37.2548 48.5 24C48.5 10.7452 37.7548 0 24.5 0C11.2452 0 0.5 10.7452 0.5 24C0.5 37.2548 11.2452 48 24.5 48Z" fill="#6A6F73"/>
<path d="M6.87333 23.9929C6.87333 12.9995 13.8133 3.6262 23.5533 0.0195312C10.74 0.519531 0.5 11.0595 0.5 23.9995C0.5 36.9529 10.76 47.5062 23.5933 47.9795C13.84 44.3795 6.87333 34.9995 6.87333 23.9929Z" fill="#6A6F73"/>
<mask id="mask1_129_358" style="mask-type:luminance" maskUnits="userSpaceOnUse" x="0" y="0" width="24" height="48">
<path d="M6.87333 23.9929C6.87333 12.9995 13.8133 3.6262 23.5533 0.0195312C10.74 0.519531 0.5 11.0595 0.5 23.9995C0.5 36.9529 10.76 47.5062 23.5933 47.9795C13.84 44.3795 6.87333 34.9995 6.87333 23.9929Z" fill="url(#paint0_radial_129_358)"/>
</mask>
<g mask="url(#mask1_129_358)">
<path d="M6.87333 23.9929C6.87333 12.9995 13.8133 3.6262 23.5533 0.0195312C10.74 0.519531 0.5 11.0595 0.5 23.9995C0.5 36.9529 10.76 47.5062 23.5933 47.9795C13.84 44.3795 6.87333 34.9995 6.87333 23.9929Z" fill="#3E4143"/>
</g>
<path d="M24.0934 21.716C25.6868 17.7893 22.7068 16.7227 20.7668 16.7227H14.3401C14.8734 17.0893 14.7868 17.576 14.6801 17.876L10.9334 29.8427C10.7868 30.316 10.2268 30.816 9.92676 30.8893H15.1268C14.8401 30.836 14.4334 30.4293 14.5801 29.876L15.9401 25.5493C15.9468 25.5493 22.2001 26.396 24.0934 21.716ZM19.0401 17.8227C19.7201 17.8227 21.6068 17.916 20.3868 21.4827C19.1134 25.2293 16.2868 24.456 16.2868 24.456L18.3668 17.8227H19.0401Z" fill="white"/>
<path d="M28.2533 30.8951H31.7533C30.6333 30.5351 28.9799 29.4751 28.3199 28.7218C28.8533 28.1418 29.5133 27.4085 29.6333 25.9218H27.8199C27.8199 25.9218 28.1666 26.1218 28.1666 26.5485C28.1666 26.9418 28.0066 27.4885 27.6999 27.8685C27.1666 27.0818 26.5999 26.1818 26.3999 24.8618C27.1133 24.5085 28.1133 24.1218 28.9066 23.4285C29.6599 22.7685 29.8333 22.1418 29.8466 21.7351V21.6818C29.8466 21.2551 29.6799 20.8551 29.3733 20.5551C28.8466 20.0351 28.0199 19.8218 27.1466 19.9818C26.4466 20.1151 25.8533 20.4885 25.5533 20.7618C24.4999 21.7551 24.3666 23.3885 24.3666 24.1285C24.3666 24.3085 24.3733 24.4418 24.3799 24.5218C24.3199 24.5485 24.2133 24.5885 24.2133 24.5885C23.4399 24.8751 21.3799 25.4218 20.6466 27.1151C20.5533 27.3285 20.4199 27.7951 20.4199 28.3351C20.4199 28.8018 20.5199 29.3218 20.8199 29.7951C21.3399 30.6085 22.2199 31.1218 23.6333 31.0951C25.1666 31.0685 26.6799 30.0218 26.9466 29.8285C27.2066 30.0751 27.8933 30.7218 28.2533 30.8951ZM28.2533 21.4285C28.0733 22.5685 26.5933 23.7218 26.2333 23.8751C26.1666 23.2351 26.1999 22.2218 26.7333 21.3951C27.0866 20.8485 27.5599 20.6085 27.9399 20.7418C28.2466 20.8485 28.2799 21.1285 28.2533 21.4285ZM26.1999 29.0551C25.9933 29.1818 25.1799 29.5951 24.4199 29.6685C23.7133 29.7351 22.5399 29.4618 22.5466 28.0485C22.5466 26.8418 23.8599 25.9551 24.5733 25.6485C24.8599 26.8151 25.5066 28.1351 26.1999 29.0551Z" fill="white"/>
<path d="M38.8866 17.8347C40.9666 17.3347 42.68 18.9614 42.8333 19.0747L43.4266 17.1881C42.6066 16.9414 36.64 14.9214 32.42 19.7347C29.8266 22.6947 29.1933 28.7614 32.48 30.3881C36 32.1281 39.8866 30.1214 40.1733 29.9814L41.78 24.8614C41.9533 24.2414 42.3466 23.8414 43.04 23.5814H37.4533C38.2666 23.9214 38.2066 24.5347 38.1466 24.7881L36.54 29.9081C36.3266 29.9481 31.8333 31.0681 34.3466 23.2081C34.9 21.5214 36.4133 18.4281 38.8866 17.8347Z" fill="white"/>
</g>
</g>
<defs>
<radialGradient id="paint0_radial_129_358" cx="0" cy="0" r="1" gradientUnits="userSpaceOnUse" gradientTransform="translate(20.6326 23.2681) rotate(-88.2324) scale(25.8488 26.3042)">
<stop offset="0.1" stop-color="white"/>
<stop offset="0.35" stop-color="#FDFDFD"/>
<stop offset="0.45" stop-color="#F6F6F6"/>
<stop offset="0.51" stop-color="#EAEAEA"/>
<stop offset="0.57" stop-color="#D9D9D9"/>
<stop offset="0.62" stop-color="#C3C3C3"/>
<stop offset="0.66" stop-color="#A7A7A7"/>
<stop offset="0.7" stop-color="#868686"/>
<stop offset="0.73" stop-color="#606060"/>
<stop offset="0.77" stop-color="#353535"/>
<stop offset="0.8"/>
</radialGradient>
<clipPath id="clip0_129_358">
<rect width="48" height="48" fill="white" transform="translate(0.5)"/>
</clipPath>
</defs>
</svg>
