<svg width="102" height="34" viewBox="0 0 102 34" fill="none" xmlns="http://www.w3.org/2000/svg">
<g clip-path="url(#clip0_129_330)">
<mask id="mask0_129_330" style="mask-type:luminance" maskUnits="userSpaceOnUse" x="0" y="0" width="102" height="34">
<path d="M101.499 0.5H0.999329V33.5H101.499V0.5Z" fill="white"/>
</mask>
<g mask="url(#mask0_129_330)">
<path d="M101.436 8.35689C102.805 16.1158 81.4471 26.277 53.7257 31.0518C26.0076 35.8266 2.42769 33.4037 1.06084 25.6415C-0.304917 17.8814 21.0591 7.72359 48.7772 2.94985C76.4963 -1.82716 100.072 0.595743 101.436 8.35689Z" fill="#6A6F73"/>
<path d="M75.3486 19.8746L75.2061 11.8066H77.7787V21.9754H74.08L71.513 13.6301H71.4578L71.6002 21.9754H69.0442V11.8066H72.903L75.2912 19.8746H75.3486Z" fill="white"/>
<path d="M28.5868 12.7588L27.1637 22.0824H24.3582L26.2848 11.8066H30.9065L32.8243 22.0824H30.0299L28.6454 12.7588H28.5868Z" fill="white"/>
<path d="M39.3584 22.0824L37.6206 12.8439H37.5642L37.4991 22.0824H34.8968L35.1264 11.8066H39.3661L40.6491 19.6617H40.7043L41.9883 11.8066H46.2258L46.451 22.0824H43.8542L43.7858 12.8439H43.7317L41.9949 22.0824H39.3584Z" fill="white"/>
<path d="M19.9829 19.1837C20.0844 19.4327 20.0535 19.7526 20.006 19.9459C19.9188 20.2876 19.6848 20.636 18.9936 20.636C18.3422 20.636 17.9469 20.2669 17.9469 19.7024V18.7077H15.1602L15.158 19.5037C15.158 21.7944 16.982 22.4856 18.9362 22.4856C20.8153 22.4856 22.3633 21.8501 22.6095 20.1381C22.7353 19.2503 22.6415 18.6695 22.5984 18.45C22.1601 16.299 18.2163 15.6569 17.9226 14.4537C17.873 14.2473 17.8873 14.0289 17.9116 13.9121C17.9834 13.5845 18.2108 13.2231 18.8611 13.2231C19.4684 13.2231 19.8272 13.5944 19.8272 14.1556C19.8272 14.3445 19.8272 14.79 19.8272 14.79H22.4185V14.0682C22.4185 11.8299 20.387 11.4805 18.9152 11.4805C17.067 11.4805 15.5566 12.0843 15.2806 13.7571C15.2055 14.2189 15.1944 14.6306 15.3037 15.1459C15.7575 17.2456 19.4485 17.8538 19.9829 19.1837Z" fill="white"/>
<path d="M53.77 19.165C53.8727 19.4118 53.8396 19.723 53.7932 19.9163C53.7082 20.2569 53.4763 20.5998 52.7896 20.5998C52.147 20.5998 51.755 20.2307 51.755 19.6793L51.7528 18.6933H48.9948L48.9915 19.4784C48.9915 21.7463 50.7989 22.4309 52.7332 22.4309C54.5925 22.4309 56.1261 21.8041 56.3679 20.1073C56.4938 19.2262 56.4043 18.6529 56.3591 18.4378C55.9229 16.3065 52.0189 15.671 51.7285 14.4797C51.6788 14.2745 51.6932 14.0583 51.7186 13.948C51.7926 13.6182 52.0156 13.2656 52.6593 13.2656C53.261 13.2656 53.6121 13.6281 53.6121 14.1849C53.6121 14.3717 53.6121 14.8128 53.6121 14.8128H56.1835V14.0987C56.1835 11.8843 54.1686 11.5371 52.7112 11.5371C50.8839 11.5371 49.3857 12.1333 49.1152 13.794C49.0401 14.2494 49.0324 14.6534 49.1394 15.1665C49.5866 17.2444 53.2411 17.8482 53.77 19.165Z" fill="white"/>
<path d="M62.4977 20.5455C63.2187 20.5455 63.4439 20.052 63.4936 19.7997C63.5146 19.6884 63.5201 19.5399 63.5179 19.4066V11.8027H66.1456V19.1741C66.1511 19.363 66.1324 19.7517 66.1235 19.8489C65.9391 21.7673 64.4056 22.3897 62.4966 22.3897C60.5854 22.3897 59.0508 21.7673 58.8686 19.8489C58.8597 19.7517 58.841 19.363 58.8465 19.1741V11.8027H61.472V19.4066C61.472 19.5399 61.4764 19.6894 61.4963 19.7997C61.5526 20.052 61.7712 20.5455 62.4977 20.5455Z" fill="white"/>
<path d="M84.1731 20.4374C84.9261 20.4374 85.1889 19.9668 85.2375 19.6927C85.2563 19.5748 85.2618 19.4318 85.2607 19.3018V17.8103H84.1941V16.31H87.8785V19.0682C87.8762 19.2603 87.8718 19.4023 87.8409 19.7451C87.6676 21.6144 86.028 22.2816 84.1864 22.2816C82.3415 22.2816 80.7041 21.6144 80.5286 19.7451C80.4987 19.4023 80.4943 19.2603 80.491 19.0682L80.4932 14.741C80.4932 14.5587 80.5164 14.2355 80.5363 14.064C80.767 12.1434 82.3415 11.5254 84.1864 11.5254C86.0291 11.5254 87.6422 12.1401 87.8332 14.064C87.8674 14.3916 87.8564 14.741 87.8564 14.741V15.0839H85.2364V14.5084C85.2386 14.5095 85.2331 14.2638 85.2021 14.1175C85.158 13.8904 84.9581 13.3685 84.1665 13.3685C83.4091 13.3685 83.1872 13.862 83.132 14.1175C83.1 14.2529 83.0878 14.4364 83.0878 14.6023V19.3018C83.0856 19.4318 83.0933 19.5748 83.1143 19.6927C83.1596 19.9679 83.4213 20.4374 84.1731 20.4374Z" fill="white"/>
</g>
</g>
<defs>
<clipPath id="clip0_129_330">
<rect width="101" height="34" fill="white" transform="translate(0.833313)"/>
</clipPath>
</defs>
</svg>
