<svg width="111" height="33" viewBox="0 0 111 33" fill="none" xmlns="http://www.w3.org/2000/svg">
<path d="M96.709 31.7698C94.5332 31.616 92.834 30.9471 91.5039 29.6939C90.9197 29.1255 90.4315 28.466 90.0585 27.7411C90.0047 27.6258 89.9509 27.5335 89.9432 27.5335C89.8379 27.5902 89.7353 27.6518 89.6357 27.718L87.7597 28.7944C84.7843 30.3936 81.7243 31.3316 78.6413 31.6084C77.6418 31.6852 76.4886 31.7083 75.7812 31.6468C74.1974 31.493 72.9135 31.0471 71.8755 30.2629C71.4878 29.9455 71.1277 29.5957 70.7992 29.2173C70.5988 28.9594 70.4139 28.6899 70.2456 28.41L70.138 28.2178L69.7997 28.5099C67.9545 30.0937 66.0554 31.0779 64.1718 31.4315C63.2646 31.6007 62.2882 31.616 61.6039 31.4777C61.1754 31.4114 60.7685 31.2453 60.4159 30.9929C60.0633 30.7405 59.775 30.4088 59.5742 30.0245C59.1129 29.1481 59.0129 27.9487 59.2282 26.2342C59.3589 25.2039 59.4588 24.6581 59.997 22.7744C60.243 21.7749 60.4583 20.6217 60.5352 19.8682C60.5813 19.4223 60.5813 18.7765 60.5352 18.4843C60.4353 17.8154 60.1892 17.431 59.7433 17.2542C59.5895 17.1927 59.1821 17.1773 58.9898 17.2311C58.1672 17.4464 57.2215 18.4459 56.1451 20.2296C54.6613 22.6898 53.8386 24.981 53.6311 27.3413C53.5849 27.8334 53.5926 29.2326 53.6387 29.6786C53.6926 30.186 53.7925 30.7011 53.9309 31.0625L54.0539 31.4161C54.0693 31.4623 54.0462 31.4623 53.3158 31.4469C52.5009 31.4315 51.9857 31.3931 51.4245 31.2931C49.3871 30.9548 48.2338 30.1399 47.7341 28.6791C47.4265 27.7949 47.3497 26.8493 47.4496 25.4346C47.5232 24.4364 47.6932 23.4477 47.957 22.4823C48.1858 21.6448 48.3528 20.7916 48.4568 19.9297C48.5029 19.4915 48.5106 18.6765 48.4722 18.4536C48.3184 17.7385 47.9955 17.3618 47.3958 17.2234C47.2728 17.2004 47.1421 17.1927 46.9652 17.2004C46.8149 17.1976 46.6656 17.2264 46.527 17.2849C45.7582 17.5925 44.9355 18.5919 44.0667 20.3603C43.1173 22.2099 42.5202 24.22 42.3061 26.288C42.1908 27.3951 42.1985 28.9789 42.3061 30.0092C42.3676 30.5627 42.4906 31.1624 42.6136 31.4853C42.629 31.5315 42.6136 31.5315 41.9678 31.5161C41.1957 31.5177 40.4262 31.4248 39.6767 31.2393C38.741 31.0332 37.8875 30.5543 37.2241 29.8631C36.7913 29.348 36.4764 28.7444 36.3015 28.0948C36.2816 28.017 36.2585 27.94 36.2323 27.8641C36.2246 27.8564 36.1246 27.941 36.0016 28.0563C34.2717 29.6324 32.711 30.6166 31.0426 31.1855C30.12 31.493 29.1205 31.6699 28.2287 31.6699C26.9217 31.6699 25.976 31.2086 25.3686 30.286C25.1226 29.9169 24.9842 29.594 24.8689 29.1327C24.6382 28.2101 24.6767 27.0953 25.0226 25.35L25.9991 21.3905L26.7987 18.4459C26.9217 17.9538 26.9294 17.9077 26.9294 17.654C26.9217 16.8082 26.5834 16.3316 26.0068 16.3239C25.853 16.3239 25.8145 16.3316 25.6377 16.4161C25.3763 16.5468 25.1764 16.6852 24.669 17.0466L24.2384 17.3541L24.1769 17.5463C23.8233 18.6073 23.0544 20.1604 22.1626 21.575C21.1861 23.1435 19.6869 25.1886 18.3953 26.7416C15.8812 29.7555 13.7207 31.3931 11.814 31.7391C11.4604 31.8006 10.9299 31.8006 10.6608 31.7314C9.47677 31.4392 8.50804 30.2398 7.64694 28.064C7.25387 26.7356 6.88477 25.4001 6.53981 24.0584C6.17675 22.7017 5.81027 21.346 5.44038 19.9912C5.1771 18.9813 4.77884 18.0116 4.25637 17.1081C3.94884 16.6468 3.57979 16.3546 3.25688 16.3239C3.12618 16.3085 3.10312 16.3162 2.90322 16.4161C2.70332 16.5161 2.08056 16.9159 1.56544 17.2772L1.27328 17.4771C1.25791 17.4848 1.04263 17.2465 0.696657 16.7852C0.503183 16.533 0.308409 16.2819 0.112342 16.0317C0.0815881 16.001 0.127718 15.9548 0.49676 15.6166C1.33861 14.8622 2.17665 14.1036 3.01085 13.3408C4.14873 12.2952 4.80993 11.757 5.57877 11.2649C6.39374 10.7268 6.90886 10.5269 7.51624 10.4961C9.03853 10.4192 10.0534 11.2649 10.5916 13.2793C10.7223 13.7406 10.7838 14.0481 10.976 15.309L12.0524 21.1522C12.4599 22.7821 12.9135 23.7278 13.3978 23.9661C13.5285 24.0276 13.567 24.043 13.6823 24.0276C14.2205 23.9892 14.9663 23.1588 16.0119 21.4905C16.8576 20.1066 17.3958 18.9994 17.5726 18.1537C17.6187 17.9384 17.6264 17.8462 17.6264 17.4002C17.6264 16.9543 17.6187 16.8621 17.588 16.7391C17.465 16.3085 17.242 16.0163 16.896 15.8472C16.6116 15.7088 16.4194 15.6704 15.9734 15.6704C15.4496 15.6704 14.9304 15.7695 14.4435 15.9625C14.2897 16.0163 14.2128 16.0394 14.1974 16.024C14.23 15.8858 14.2711 15.7497 14.3204 15.6166C14.751 14.3557 15.243 13.31 15.9042 12.5412C16.1349 12.2337 16.6116 11.7493 16.8884 11.5263C17.3497 11.1419 17.9647 10.7959 18.5183 10.6037C19.71 10.1655 21.3322 10.0886 22.3625 10.4269C23.7618 10.8882 24.5152 12.0568 24.669 14.0866L24.6844 14.2788L24.792 14.1788L25.7146 13.41C27.5598 11.7186 28.6362 10.9497 29.528 10.6883C29.7049 10.6345 29.8048 10.6268 30.1123 10.6114C31.2348 10.573 32.0191 10.919 32.5572 11.7416C33.0493 12.4797 33.2723 13.4331 33.2031 14.5325C33.1877 14.84 33.1492 15.0707 32.9494 16.0702L31.7653 22.759C31.627 23.6355 31.6116 23.6663 31.6346 23.9892C31.6654 24.7734 31.8345 25.2578 32.1882 25.6191C32.2882 25.7281 32.4083 25.8169 32.5419 25.8805C32.8494 26.0343 33.3107 26.0804 33.6182 26.0035C33.9119 25.9026 34.1931 25.7685 34.4563 25.6037C35.0585 25.2265 35.6224 24.7913 36.14 24.3044C36.1701 24.0945 36.1983 23.8844 36.2246 23.674L36.5321 21.698L36.9781 18.5919L37.0703 17.0543C37.0396 16.6391 36.7628 16.4238 36.4322 16.5315C36.2015 16.6083 35.7095 16.9159 35.0252 17.3926C34.7407 17.5925 34.6792 17.6232 34.6562 17.6001L33.3722 16.1163C33.3722 16.1086 33.4337 16.0394 33.5106 15.9856L35.9939 13.6791L38.608 11.3726C39.0847 11.0112 39.4537 10.7959 39.7766 10.6806C39.915 10.6345 39.9842 10.6268 40.2379 10.6268C40.4224 10.6268 40.6223 10.6422 40.6992 10.6652C41.3527 10.819 41.8679 11.1804 42.2907 11.8185C42.7136 12.4566 42.998 13.1717 43.1211 13.9712C43.1979 14.4095 43.1979 15.2629 43.1364 15.6242L43.098 15.8856C43.098 15.901 43.1749 15.8088 43.2518 15.6781C43.9197 14.7186 44.7343 13.8702 45.6659 13.164C46.0354 12.8921 46.4177 12.6381 46.8115 12.4028C48.1646 11.634 49.6562 11.2111 51.1477 11.1727C52.5316 11.1265 53.5772 11.4648 54.2999 12.1722C54.5694 12.4426 54.7904 12.7573 54.9535 13.1025C55.2764 13.7713 55.4148 14.4864 55.4609 15.5089L55.4763 16.001L55.8914 15.6396C56.1316 15.4319 56.3576 15.2085 56.568 14.9707C56.9868 14.4962 57.4281 14.0421 57.8904 13.6099C59.405 12.226 61.0042 11.4418 62.7494 11.2265C63.1723 11.1727 63.8796 11.1496 64.241 11.1881C65.1319 11.2241 65.9781 11.5883 66.6167 12.2106C67.4624 13.1101 67.8238 14.3095 67.7392 16.0087C67.6777 17.2388 67.4932 18.369 66.9704 20.6217C66.3322 23.451 66.2323 24.0507 66.3092 24.8195C66.3707 25.4346 66.4937 25.696 66.8089 25.8651C67.0396 25.9882 67.2395 26.0343 67.6546 26.0497C67.9929 26.065 68.016 26.0573 68.1928 25.9958C68.4235 25.919 68.731 25.7652 69.0232 25.5653C69.2 25.45 69.2384 25.4115 69.2307 25.3808C69.1923 25.227 69.1539 24.3813 69.1769 23.8815C69.2062 22.2738 69.6006 20.6938 70.3302 19.2608C70.8529 18.2012 71.5036 17.2097 72.2676 16.3085C74.5742 13.4638 77.4957 11.6955 80.6787 11.0804C81.9857 10.8344 83.5234 10.7729 84.6459 10.9266C86.7987 11.2034 88.1364 12.1337 88.7361 13.756C88.9283 14.2942 89.0437 14.8708 89.059 15.5089C89.0744 16.147 89.0129 16.6083 88.8053 17.2465C88.344 18.6611 87.2676 20.0758 85.5608 21.5673C83.5388 23.3203 81.0478 24.5427 78.2184 25.1809L77.0652 25.4115C77.0344 25.4115 77.2958 25.7191 77.4727 25.8728C78.0109 26.388 78.6721 26.6801 79.4947 26.7801C79.8022 26.8185 80.9555 26.7954 81.4937 26.7416C83.7618 26.5263 85.9837 25.919 88.5977 24.7965L89.1359 24.5658L89.1205 24.4351C89.0485 23.6525 89.0485 22.865 89.1205 22.0825C89.3173 20.2454 89.9614 18.4847 90.9965 16.9543C91.4211 16.3075 91.8968 15.6956 92.4189 15.1245C93.5529 13.7961 94.9376 12.7041 96.4937 11.9108C98.2578 11.0266 100.202 10.5609 102.175 10.5499C103.075 10.5345 103.682 10.5807 104.405 10.7268C105.387 10.9185 106.314 11.3255 107.119 11.9184C107.685 12.3712 108.185 12.9018 108.603 13.4946C109.641 14.9554 110.156 16.8774 110.094 19.084C110.041 21.083 109.633 22.8821 108.864 24.5812C108.095 26.1035 107.034 27.6796 105.758 28.8636C103.798 30.7088 101.553 31.7083 98.854 31.9851C98.508 32.0235 97.1395 32.0466 96.8089 32.0312L96.709 31.7698ZM98.385 27.0338C99.8074 26.8646 101.076 25.8805 102.137 24.0891C103.204 22.3767 103.756 20.3939 103.728 18.3767C103.705 17.5925 103.613 17.0158 103.398 16.3623C103.198 15.7703 102.998 15.4167 102.729 15.1706C102.46 14.9246 102.191 14.8477 101.637 14.8862C101.049 14.9217 100.475 15.0732 99.9458 15.3321C98.9463 15.8241 98.1006 16.6545 97.3317 17.9461C96.3541 19.524 95.7859 21.3211 95.6787 23.1742C95.6172 24.1737 95.771 25.0194 96.1631 25.8113C96.4399 26.3649 96.7935 26.757 97.1856 26.9261C97.569 27.0667 97.9819 27.0987 98.385 27.0338ZM76.4194 22.8821C78.5676 22.0378 80.4222 20.584 81.7551 18.6996C82.1164 18.1614 82.3471 17.6386 82.424 17.2004C82.4547 16.9258 82.4417 16.6482 82.3855 16.3777C82.3471 16.2009 82.2318 15.9779 82.1395 15.8703C82.0472 15.7626 81.8627 15.6396 81.6782 15.5858C81.3796 15.5236 81.0723 15.5158 80.771 15.5627C79.7946 15.7703 78.8335 16.5161 77.8648 17.8231C76.8115 19.2378 76.2348 20.5909 76.0965 21.921C76.0657 22.267 76.0657 22.9974 76.0965 22.9974C76.1983 22.967 76.2984 22.931 76.3963 22.8897L76.4194 22.8821ZM29.5203 7.12091C28.9822 7.07478 28.4286 6.92101 28.0749 6.71342C27.875 6.5981 27.5752 6.32901 27.4445 6.15217C27.2359 5.84579 27.0992 5.49624 27.0447 5.12962C26.9909 4.72095 26.9961 4.30668 27.0601 3.89948C27.1831 3.28441 27.5214 2.7001 28.0903 2.10809C29.0534 1.05453 30.3689 0.389963 31.7884 0.239821C32.5572 0.162937 33.2492 0.301327 33.7643 0.701122C34.2794 1.10092 34.6869 1.70061 34.8714 2.27724C34.9483 2.56171 34.9791 3.04607 34.9176 3.38436C34.7792 4.17626 34.3409 4.92204 33.5644 5.69087C32.7418 6.49815 31.8576 6.93639 30.7966 7.09015C30.4891 7.13628 29.8432 7.15166 29.5357 7.1286L29.5203 7.12091Z" fill="#6A6F73"/>
</svg>
