<svg xmlns="http://www.w3.org/2000/svg" viewBox="0 0 64 64" id="input-survey"><path d="M14,58H42.92v2H14a3,3,0,0,1-3-3V7a3,3,0,0,1,3-3H46a3,3,0,0,1,3,3V27H47V7a1,1,0,0,0-1-1H14a1,1,0,0,0-1,1V57A1,1,0,0,0,14,58ZM31,28v2h7V28Zm12-6H31v2H43ZM26,42H18a1,1,0,0,1-1-1V35a1,1,0,0,1,1-1h8a1,1,0,0,1,1,1v6A1,1,0,0,1,26,42Zm-1-6H19v4h6Zm6,4v2h7V40Zm10-6H31v2H41ZM31,54h7V52H31Zm10-8H31v2H41ZM27,17a1,1,0,0,1-1,1H18a1,1,0,0,1-1-1V11a1,1,0,0,1,1-1h8a1,1,0,0,1,1,1Zm-2-5H19v4h6Zm6,4v2h7V16Zm12-6H31v2H43ZM53,32V54a1.08,1.08,0,0,1-.21.62l-3.92,5a1,1,0,0,1-.78.38h0a1,1,0,0,1-.77-.37l-4.08-5A1,1,0,0,1,43,54V32a3,3,0,0,1,3-3h4A3,3,0,0,1,53,32Zm-8,2h6V32a1,1,0,0,0-1-1H46a1,1,0,0,0-1,1Zm6,2H45V53.64l3.07,3.76L51,53.65ZM18.6,29.8,22,27.25l3.4,2.55,1.2-1.6L23.67,26l2.93-2.2-1.2-1.6L22,24.75,18.6,22.2l-1.2,1.6L20.33,26,17.4,28.2Zm6.8,16.4L22,48.75,18.6,46.2l-1.2,1.6L20.33,50,17.4,52.2l1.2,1.6L22,51.25l3.4,2.55,1.2-1.6L23.67,50l2.93-2.2Z"></path></svg>